<svg width="24" height="20" viewBox="0 0 24 20" fill="none" xmlns="http://www.w3.org/2000/svg">
<path d="M21.6667 8.33465H5L10.4833 2.85132C10.6395 2.69638 10.7635 2.51205 10.8482 2.30895C10.9328 2.10585 10.9763 1.88801 10.9763 1.66799C10.9763 1.44797 10.9328 1.23012 10.8482 1.02703C10.7635 0.823927 10.6395 0.639592 10.4833 0.484654C10.1711 0.174236 9.74864 0 9.30833 0C8.86802 0 8.44561 0.174236 8.13333 0.484654L0.983334 7.65132C0.357354 8.27357 0.00372132 9.11869 0 10.0013C0.00811098 10.8782 0.361407 11.7165 0.983334 12.3346L8.13333 19.5013C8.28873 19.6556 8.473 19.7778 8.67562 19.8609C8.87824 19.944 9.09523 19.9863 9.31423 19.9856C9.53322 19.9848 9.74991 19.9409 9.95194 19.8564C10.154 19.7719 10.3374 19.6484 10.4917 19.493C10.646 19.3376 10.7682 19.1533 10.8512 18.9507C10.9343 18.7481 10.9767 18.5311 10.9759 18.3121C10.9752 18.0931 10.9313 17.8764 10.8467 17.6744C10.7622 17.4724 10.6387 17.289 10.4833 17.1346L5 11.668H21.6667C22.1087 11.668 22.5326 11.4924 22.8452 11.1798C23.1577 10.8673 23.3333 10.4433 23.3333 10.0013C23.3333 9.55929 23.1577 9.13537 22.8452 8.82281C22.5326 8.51025 22.1087 8.33465 21.6667 8.33465Z" fill="#3C84C0"/>
</svg>
