<svg width="40" height="40" viewBox="0 0 40 40" fill="none" xmlns="http://www.w3.org/2000/svg">
<g clip-path="url(#clip0_201_33)">
<path d="M31.6667 3.33333H30V1.66667C30 1.22464 29.8244 0.800716 29.5118 0.488155C29.1993 0.175595 28.7754 0 28.3333 0C27.8913 0 27.4674 0.175595 27.1548 0.488155C26.8423 0.800716 26.6667 1.22464 26.6667 1.66667V3.33333H13.3333V1.66667C13.3333 1.22464 13.1577 0.800716 12.8452 0.488155C12.5326 0.175595 12.1087 0 11.6667 0C11.2246 0 10.8007 0.175595 10.4882 0.488155C10.1756 0.800716 10 1.22464 10 1.66667V3.33333H8.33333C6.12401 3.33598 4.00593 4.2148 2.4437 5.77703C0.88147 7.33926 0.00264643 9.45734 0 11.6667L0 31.6667C0.00264643 33.876 0.88147 35.9941 2.4437 37.5563C4.00593 39.1185 6.12401 39.9974 8.33333 40H31.6667C33.876 39.9974 35.9941 39.1185 37.5563 37.5563C39.1185 35.9941 39.9974 33.876 40 31.6667V11.6667C39.9974 9.45734 39.1185 7.33926 37.5563 5.77703C35.9941 4.2148 33.876 3.33598 31.6667 3.33333V3.33333ZM3.33333 11.6667C3.33333 10.3406 3.86012 9.06881 4.7978 8.13113C5.73548 7.19345 7.00725 6.66667 8.33333 6.66667H31.6667C32.9927 6.66667 34.2645 7.19345 35.2022 8.13113C36.1399 9.06881 36.6667 10.3406 36.6667 11.6667V13.3333H3.33333V11.6667ZM31.6667 36.6667H8.33333C7.00725 36.6667 5.73548 36.1399 4.7978 35.2022C3.86012 34.2645 3.33333 32.9927 3.33333 31.6667V16.6667H36.6667V31.6667C36.6667 32.9927 36.1399 34.2645 35.2022 35.2022C34.2645 36.1399 32.9927 36.6667 31.6667 36.6667Z" fill="#4D89EC"/>
<path d="M20 27.5C21.3807 27.5 22.5 26.3807 22.5 25C22.5 23.6193 21.3807 22.5 20 22.5C18.6193 22.5 17.5 23.6193 17.5 25C17.5 26.3807 18.6193 27.5 20 27.5Z" fill="#4D89EC"/>
<path d="M11.6665 27.5C13.0472 27.5 14.1665 26.3807 14.1665 25C14.1665 23.6193 13.0472 22.5 11.6665 22.5C10.2858 22.5 9.1665 23.6193 9.1665 25C9.1665 26.3807 10.2858 27.5 11.6665 27.5Z" fill="#4D89EC"/>
<path d="M28.3335 27.5C29.7142 27.5 30.8335 26.3807 30.8335 25C30.8335 23.6193 29.7142 22.5 28.3335 22.5C26.9528 22.5 25.8335 23.6193 25.8335 25C25.8335 26.3807 26.9528 27.5 28.3335 27.5Z" fill="#4D89EC"/>
</g>
<defs>
<clipPath id="clip0_201_33">
<rect width="40" height="40" fill="white"/>
</clipPath>
</defs>
</svg>
