<svg width="30" height="12" viewBox="0 0 30 12" fill="none" xmlns="http://www.w3.org/2000/svg">
<path d="M30 1.06296C30.0009 1.20204 29.9694 1.33992 29.9072 1.46868C29.845 1.59744 29.7534 1.71455 29.6375 1.8133L19.4268 10.4476C18.8463 10.9397 18.1567 11.3301 17.3976 11.5965C16.6384 11.8629 15.8245 12 15.0025 12C14.1806 12 13.3667 11.8629 12.6075 11.5965C11.8484 11.3301 11.1588 10.9397 10.5783 10.4476L0.367552 1.8133C0.251023 1.71477 0.158588 1.59779 0.0955236 1.46904C0.0324589 1.3403 1.22783e-09 1.20231 0 1.06296C-1.22782e-09 0.923604 0.0324589 0.785616 0.0955236 0.656872C0.158588 0.528127 0.251023 0.411146 0.367552 0.31261C0.48408 0.214072 0.622419 0.135907 0.77467 0.0825796C0.926922 0.0292511 1.0901 0.00180435 1.2549 0.00180435C1.4197 0.00180435 1.58288 0.0292511 1.73513 0.0825796C1.88738 0.135907 2.02572 0.214072 2.14225 0.31261L12.353 8.94689C13.056 9.54062 14.009 9.87411 15.0025 9.87411C15.9961 9.87411 16.9491 9.54062 17.6521 8.94689L27.8628 0.31261C27.979 0.213554 28.1173 0.134931 28.2696 0.0812769C28.4219 0.0276232 28.5852 9.53674e-07 28.7502 9.53674e-07C28.9152 9.53674e-07 29.0785 0.0276232 29.2308 0.0812769C29.3831 0.134931 29.5214 0.213554 29.6375 0.31261C29.7534 0.41136 29.845 0.528471 29.9072 0.657232C29.9694 0.785994 30.0009 0.92387 30 1.06296Z" fill="#E6B32A"/>
</svg>
