<svg width="25" height="22" viewBox="0 0 25 22" fill="none" xmlns="http://www.w3.org/2000/svg">
<g clip-path="url(#clip0_157_29)">
<path d="M24.9521 5.08008L16.1833 12.7966C15.2056 13.6548 13.881 14.1368 12.5 14.1368C11.119 14.1368 9.7944 13.6548 8.81666 12.7966L0.0479167 5.08008C0.0333333 5.22491 0 5.356 0 5.49991V16.4999C0.00165402 17.715 0.550919 18.88 1.52731 19.7392C2.50371 20.5984 3.8275 21.0818 5.20833 21.0833H19.7917C21.1725 21.0818 22.4963 20.5984 23.4727 19.7392C24.4491 18.88 24.9983 17.715 25 16.4999V5.49991C25 5.356 24.9667 5.22491 24.9521 5.08008Z" fill="#3C84C0"/>
<path d="M14.7108 11.5006L24.2254 3.12683C23.7645 2.45429 23.1144 1.89762 22.3379 1.5105C21.5613 1.12339 20.6845 0.918894 19.7921 0.916748H5.20873C4.31625 0.918894 3.43946 1.12339 2.66292 1.5105C1.88638 1.89762 1.23631 2.45429 0.775391 3.12683L10.29 11.5006C10.877 12.0151 11.6718 12.304 12.5004 12.304C13.329 12.304 14.1238 12.0151 14.7108 11.5006Z" fill="#3C84C0"/>
</g>
<defs>
<clipPath id="clip0_157_29">
<rect width="25" height="22" fill="white"/>
</clipPath>
</defs>
</svg>
