<svg width="20" height="20" viewBox="0 0 20 20" fill="none" xmlns="http://www.w3.org/2000/svg">
<g clip-path="url(#clip0_55_427)">
<path d="M9.99992 5.83333C9.17583 5.83333 8.37025 6.0777 7.68504 6.53554C6.99984 6.99338 6.46579 7.64413 6.15042 8.40548C5.83506 9.16684 5.75254 10.0046 5.91332 10.8129C6.07409 11.6211 6.47092 12.3636 7.05364 12.9463C7.63636 13.529 8.37879 13.9258 9.18704 14.0866C9.9953 14.2474 10.8331 14.1649 11.5944 13.8495C12.3558 13.5341 13.0065 13.0001 13.4644 12.3149C13.9222 11.6297 14.1666 10.8241 14.1666 10C14.1653 8.89534 13.7259 7.8363 12.9447 7.05518C12.1636 6.27407 11.1046 5.83466 9.99992 5.83333ZM9.99992 12.5C9.50547 12.5 9.02212 12.3534 8.61099 12.0787C8.19987 11.804 7.87944 11.4135 7.69022 10.9567C7.501 10.4999 7.45149 9.99723 7.54796 9.51227C7.64442 9.02732 7.88252 8.58186 8.23215 8.23223C8.58178 7.8826 9.02724 7.6445 9.51219 7.54804C9.99715 7.45157 10.4998 7.50108 10.9566 7.6903C11.4134 7.87952 11.8039 8.19995 12.0786 8.61107C12.3533 9.0222 12.4999 9.50555 12.4999 10C12.4999 10.663 12.2365 11.2989 11.7677 11.7678C11.2988 12.2366 10.663 12.5 9.99992 12.5Z" fill="#1C658C"/>
<path d="M19.3962 7.63667C18.1037 5.53167 15.1637 2 10.0037 2C4.8437 2 1.9037 5.53167 0.611205 7.63667C0.211645 8.28292 0 9.0277 0 9.7875C0 10.5473 0.211645 11.2921 0.611205 11.9383C1.9037 14.0433 4.8437 17.575 10.0037 17.575C15.1637 17.575 18.1037 14.0433 19.3962 11.9383C19.7958 11.2921 20.0074 10.5473 20.0074 9.7875C20.0074 9.0277 19.7958 8.28292 19.3962 7.63667ZM17.9754 11.0658C16.8654 12.8708 14.3529 15.9083 10.0037 15.9083C5.65454 15.9083 3.14204 12.8708 2.03204 11.0658C1.79465 10.6817 1.66891 10.2391 1.66891 9.7875C1.66891 9.33594 1.79465 8.8933 2.03204 8.50917C3.14204 6.70417 5.65454 3.66667 10.0037 3.66667C14.3529 3.66667 16.8654 6.70083 17.9754 8.50917C18.2128 8.8933 18.3385 9.33594 18.3385 9.7875C18.3385 10.2391 18.2128 10.6817 17.9754 11.0658Z" fill="#1C658C"/>
</g>
<defs>
<clipPath id="clip0_55_427">
<rect width="20" height="20" fill="white"/>
</clipPath>
</defs>
</svg>
