<svg width="25" height="25" viewBox="0 0 25 25" fill="none" xmlns="http://www.w3.org/2000/svg">
<path d="M24.6949 6.19146C24.4994 5.99597 24.2344 5.88616 23.958 5.88616C23.6817 5.88616 23.4166 5.99597 23.2212 6.19146L17.8309 11.5834C17.367 12.0252 16.7815 12.3177 16.1499 12.4233C15.5183 12.5288 14.8695 12.4426 14.2874 12.1757L21.5641 4.89534C21.6636 4.79915 21.743 4.68409 21.7976 4.55687C21.8522 4.42965 21.881 4.29283 21.8822 4.15437C21.8834 4.01592 21.857 3.87861 21.8046 3.75046C21.7522 3.62231 21.6748 3.50589 21.577 3.40799C21.4791 3.31008 21.3628 3.23266 21.2347 3.18023C21.1066 3.1278 20.9694 3.10141 20.831 3.10262C20.6926 3.10382 20.5558 3.13258 20.4287 3.18723C20.3015 3.24188 20.1865 3.32132 20.0904 3.42091L12.8064 10.7128C12.5261 10.1311 12.4336 9.47671 12.5417 8.84016C12.6499 8.20361 12.9532 7.61648 13.4098 7.16016L18.7991 1.76713C18.9889 1.57047 19.094 1.30708 19.0916 1.03367C19.0892 0.760272 18.9796 0.498741 18.7864 0.30541C18.5931 0.112078 18.3317 0.0024152 18.0585 3.94181e-05C17.7852 -0.00233637 17.522 0.102765 17.3254 0.292708L11.9361 5.68573C11.0904 6.53743 10.563 7.65412 10.4423 8.84861C10.3216 10.0431 10.615 11.2428 11.2733 12.2466L0.292561 23.2329C0.102714 23.4295 -0.00233519 23.6929 3.93982e-05 23.9663C0.00241399 24.2397 0.112022 24.5013 0.305256 24.6946C0.49849 24.8879 0.759889 24.9976 1.03315 25C1.30642 25.0023 1.56968 24.8972 1.76625 24.7073L12.747 13.721C13.7503 14.3797 14.9494 14.6732 16.1433 14.5525C17.3372 14.4317 18.4533 13.904 19.3045 13.0579L24.6949 7.66588C24.8902 7.47034 25 7.20517 25 6.92867C25 6.65217 24.8902 6.387 24.6949 6.19146Z" fill="#3C84C0"/>
</svg>
