<svg width="30" height="30" viewBox="0 0 30 30" fill="none" xmlns="http://www.w3.org/2000/svg">
<g clip-path="url(#clip0_213_315)">
<path d="M11.25 15C9.76664 15 8.31659 14.5601 7.08323 13.736C5.84986 12.9119 4.88856 11.7406 4.32091 10.3701C3.75325 8.99968 3.60472 7.49168 3.89411 6.03683C4.1835 4.58197 4.89781 3.2456 5.9467 2.1967C6.9956 1.14781 8.33197 0.433503 9.78682 0.144114C11.2417 -0.145275 12.7497 0.00324964 14.1201 0.570907C15.4906 1.13856 16.6619 2.09986 17.486 3.33323C18.3101 4.56659 18.75 6.01664 18.75 7.5C18.748 9.48852 17.9572 11.395 16.5511 12.8011C15.145 14.2072 13.2385 14.998 11.25 15ZM11.25 2.5C10.2611 2.5 9.2944 2.79325 8.47215 3.34265C7.64991 3.89206 7.00904 4.67296 6.6306 5.58659C6.25217 6.50022 6.15315 7.50555 6.34608 8.47545C6.539 9.44536 7.01521 10.3363 7.71447 11.0355C8.41373 11.7348 9.30465 12.211 10.2745 12.4039C11.2445 12.5969 12.2498 12.4978 13.1634 12.1194C14.077 11.741 14.8579 11.1001 15.4073 10.2779C15.9568 9.45561 16.25 8.48891 16.25 7.5C16.25 6.17392 15.7232 4.90215 14.7855 3.96447C13.8479 3.02679 12.5761 2.5 11.25 2.5Z" fill="#E6B32A"/>
<path d="M22.5 30H20V23.6963C19.9987 22.7164 19.6088 21.777 18.9159 21.0841C18.223 20.3912 17.2836 20.0013 16.3037 20H6.19625C5.21635 20.0013 4.27696 20.3912 3.58407 21.0841C2.89117 21.777 2.50132 22.7164 2.5 23.6963V30H0V23.6963C0.00198478 22.0535 0.655439 20.4786 1.81703 19.317C2.97862 18.1554 4.55351 17.502 6.19625 17.5H16.3037C17.9465 17.502 19.5214 18.1554 20.683 19.317C21.8446 20.4786 22.498 22.0535 22.5 23.6963V30Z" fill="#E6B32A"/>
<path d="M27.4998 9.84375C26.8041 9.8784 26.1505 10.1872 25.682 10.7026C25.2135 11.218 24.9682 11.898 24.9998 12.5937C25.0314 11.898 24.7861 11.218 24.3176 10.7026C23.849 10.1872 23.1954 9.8784 22.4998 9.84375C21.8041 9.8784 21.1505 10.1872 20.682 10.7026C20.2135 11.218 19.9682 11.898 19.9998 12.5937C19.9998 15.4687 24.9998 19.01 24.9998 19.01C24.9998 19.01 29.9998 15.4737 29.9998 12.5937C30.0314 11.898 29.7861 11.218 29.3175 10.7026C28.849 10.1872 28.1954 9.8784 27.4998 9.84375Z" fill="#E6B32A"/>
</g>
<defs>
<clipPath id="clip0_213_315">
<rect width="30" height="30" fill="white"/>
</clipPath>
</defs>
</svg>
