<svg width="40" height="40" viewBox="0 0 40 40" fill="none" xmlns="http://www.w3.org/2000/svg">
<path d="M28.3334 29.9751V39.9751H35C37.7614 39.9751 40 37.7365 40 34.9751V19.7735C40.0004 18.9076 39.6639 18.0756 39.0616 17.4535L24.8984 2.14173C22.3993 -0.562172 18.1815 -0.728188 15.4776 1.77088C15.3491 1.88963 15.2254 2.0133 15.1067 2.14173L0.96836 17.4485C0.347891 18.0731 -0.000234257 18.918 1.18268e-07 19.7985V34.9751C1.18268e-07 37.7365 2.23859 39.9751 5 39.9751H11.6666V29.9751C11.6978 25.4304 15.3671 21.7192 19.7973 21.6123C24.3758 21.5018 28.2984 25.2763 28.3334 29.9751Z" fill="#4D89EC"/>
<path d="M20 24.9751C17.2386 24.9751 15 27.2137 15 29.9751V39.9751H25V29.9751C25 27.2137 22.7614 24.9751 20 24.9751Z" fill="#4D89EC"/>
</svg>
