<svg width="30" height="30" viewBox="0 0 30 30" fill="none" xmlns="http://www.w3.org/2000/svg">
<path d="M29.6604 27.8912C29.8877 28.133 30.0096 28.4552 29.9994 28.787C29.9892 29.1187 29.8477 29.4329 29.606 29.6602C29.3644 29.8876 29.0423 30.0096 28.7107 29.9994C28.3792 29.9892 28.0652 29.8476 27.838 29.6058L20.9844 22.3034C19.6894 22.3447 13.7259 22.5223 15.5946 19.7021C15.751 19.5429 15.9477 19.4293 16.1637 19.3734C16.3797 19.3174 16.6068 19.3212 16.8208 19.3844C18.2181 19.8181 19.6931 19.9419 21.1432 19.7471C21.3937 19.715 21.6483 19.7436 21.8855 19.8307C22.1226 19.9178 22.3353 20.0607 22.5056 20.2474L29.6604 27.8912ZM18.7495 17.4935C19.5702 17.4946 20.3831 17.3337 21.1415 17.02C21.9 16.7062 22.5891 16.2458 23.1693 15.665L29.6329 9.19678C29.7491 9.08067 29.8414 8.94279 29.9043 8.79101C29.9673 8.63924 29.9997 8.47655 29.9999 8.31222C30 8.14789 29.9677 7.98515 29.905 7.83329C29.8422 7.68143 29.7502 7.54342 29.6342 7.42714C29.5181 7.31086 29.3803 7.21859 29.2286 7.1556C29.0769 7.09261 28.9143 7.06012 28.7501 7.06001C28.5858 7.05989 28.4232 7.09214 28.2714 7.15492C28.1196 7.2177 27.9817 7.30977 27.8655 7.42589L21.4019 13.8942C20.853 14.4386 20.1493 14.8 19.3872 14.9289C18.6251 15.0579 17.8418 14.9481 17.1445 14.6145L25.883 5.87135C26.0024 5.75599 26.0976 5.61799 26.1631 5.4654C26.2286 5.31282 26.2631 5.14871 26.2646 4.98266C26.266 4.8166 26.2344 4.65192 26.1715 4.49822C26.1087 4.34452 26.0159 4.20488 25.8985 4.08746C25.7812 3.97003 25.6416 3.87717 25.488 3.81429C25.3344 3.75141 25.1698 3.71976 25.0038 3.7212C24.8378 3.72265 24.6738 3.75715 24.5213 3.82269C24.3688 3.88824 24.2309 3.98351 24.1156 4.10296L15.3746 12.8461C15.0412 12.1484 14.9314 11.3647 15.0603 10.6022C15.1892 9.83971 15.5504 9.13569 16.0945 8.58647L22.5619 2.11946C22.7896 1.88359 22.9155 1.56768 22.9127 1.23976C22.9098 0.911853 22.7784 0.598179 22.5466 0.366301C22.3149 0.134424 22.0014 0.00289674 21.6736 4.72771e-05C21.3459 -0.00280219 21.0302 0.123254 20.7944 0.351067L14.3296 6.81808C13.3131 7.83861 12.6791 9.17849 12.5345 10.612C12.3899 12.0456 12.7436 13.4852 13.5359 14.6883L0.36624 27.865C0.138549 28.1008 0.0125591 28.4167 0.015407 28.7446C0.018255 29.0726 0.149712 29.3862 0.381466 29.6181C0.61322 29.85 0.926726 29.9815 1.25446 29.9844C1.5822 29.9872 1.89794 29.8612 2.13369 29.6333L15.3033 16.4567C16.3256 17.1329 17.524 17.4934 18.7495 17.4935ZM6.81481 16.1991C7.85103 17.1758 8.80725 15.8789 9.50348 15.1848C9.79148 14.8935 10.0035 14.5359 10.121 14.1433C10.2385 13.7508 10.2578 13.3354 10.1772 12.9337C9.40598 10.7801 11.2909 8.26631 9.73098 6.53419L4.16113 0.701244C3.81756 0.367255 3.38374 0.141254 2.91325 0.0511442C2.44276 -0.0389652 1.95619 0.0107628 1.51362 0.194188C1.07106 0.377614 0.691873 0.686706 0.422884 1.0833C0.153896 1.47989 0.00688426 1.94662 0 2.42586C0.296242 8.19628 2.41868 11.1403 6.81481 16.1991Z" fill="#F4F4FB"/>
</svg>
