<svg width="25" height="25" viewBox="0 0 25 25" fill="none" xmlns="http://www.w3.org/2000/svg">
<path d="M24.9987 2.23185C25.0832 6.51027 20.9581 17.5089 7.1768 18.8551L1.77609 24.6988C1.58532 24.8874 1.32927 24.9952 1.06111 24.9998C0.792964 25.0045 0.533325 24.9056 0.336123 24.7238C0.138921 24.5419 0.0193136 24.2911 0.00214178 24.0233C-0.01503 23.7555 0.0715538 23.4914 0.24391 23.2859L21.0708 0.738572C21.3759 0.403142 21.7749 0.167362 22.2158 0.0619115C22.6567 -0.0435392 23.1191 -0.0137776 23.5429 0.147324C23.9666 0.308425 24.3321 0.593406 24.5918 0.965186C24.8514 1.33697 24.9932 1.77833 24.9987 2.23185Z" fill="#3C84C0"/>
</svg>
