<svg width="20" height="20" viewBox="0 0 20 20" fill="none" xmlns="http://www.w3.org/2000/svg">
<g clip-path="url(#clip0_55_15)">
<path d="M15.8334 7.02V5.83333C15.8334 4.28624 15.2188 2.80251 14.1248 1.70854C13.0308 0.614582 11.5471 0 10 0C8.45293 0 6.96919 0.614582 5.87523 1.70854C4.78127 2.80251 4.16669 4.28624 4.16669 5.83333V7.02C3.42449 7.34392 2.79276 7.8771 2.34877 8.55434C1.90477 9.23158 1.66775 10.0235 1.66669 10.8333V15.8333C1.66801 16.938 2.10742 17.997 2.88854 18.7781C3.66965 19.5593 4.72869 19.9987 5.83335 20H14.1667C15.2714 19.9987 16.3304 19.5593 17.1115 18.7781C17.8926 17.997 18.332 16.938 18.3334 15.8333V10.8333C18.3323 10.0235 18.0953 9.23158 17.6513 8.55434C17.2073 7.8771 16.5756 7.34392 15.8334 7.02ZM5.83335 5.83333C5.83335 4.72826 6.27234 3.66846 7.05374 2.88705C7.83514 2.10565 8.89495 1.66667 10 1.66667C11.1051 1.66667 12.1649 2.10565 12.9463 2.88705C13.7277 3.66846 14.1667 4.72826 14.1667 5.83333V6.66667H5.83335V5.83333ZM16.6667 15.8333C16.6667 16.4964 16.4033 17.1323 15.9345 17.6011C15.4656 18.0699 14.8297 18.3333 14.1667 18.3333H5.83335C5.17031 18.3333 4.53443 18.0699 4.06559 17.6011C3.59675 17.1323 3.33335 16.4964 3.33335 15.8333V10.8333C3.33335 10.1703 3.59675 9.53441 4.06559 9.06556C4.53443 8.59672 5.17031 8.33333 5.83335 8.33333H14.1667C14.8297 8.33333 15.4656 8.59672 15.9345 9.06556C16.4033 9.53441 16.6667 10.1703 16.6667 10.8333V15.8333Z" fill="#1C658C"/>
<path d="M10 11.6667C9.77901 11.6667 9.56704 11.7545 9.41076 11.9107C9.25448 12.067 9.16669 12.279 9.16669 12.5V14.1667C9.16669 14.3877 9.25448 14.5996 9.41076 14.7559C9.56704 14.9122 9.77901 15 10 15C10.221 15 10.433 14.9122 10.5893 14.7559C10.7456 14.5996 10.8334 14.3877 10.8334 14.1667V12.5C10.8334 12.279 10.7456 12.067 10.5893 11.9107C10.433 11.7545 10.221 11.6667 10 11.6667Z" fill="#1C658C"/>
</g>
<defs>
<clipPath id="clip0_55_15">
<rect width="20" height="20" fill="white"/>
</clipPath>
</defs>
</svg>
