<svg width="25" height="25" viewBox="0 0 25 25" fill="none" xmlns="http://www.w3.org/2000/svg">
<g clip-path="url(#clip0_213_358)">
<path d="M15.6254 25.0001C13.8749 24.9988 12.1441 24.6305 10.5447 23.9189C8.94536 23.2073 7.51297 22.1683 6.33999 20.8689C5.15815 19.568 4.26646 18.0306 3.7241 16.3588C3.18173 14.687 3.00109 12.919 3.19415 11.172C3.50541 8.45327 4.69144 5.90923 6.5737 3.92289C8.45595 1.93656 10.9325 0.61545 13.6306 0.158465C15.3748 -0.110937 17.1547 -0.0384087 18.8712 0.372006C19.3207 0.487484 19.7311 0.720969 20.0601 1.0483C20.389 1.37563 20.6245 1.78491 20.7422 2.2338C20.8599 2.68269 20.8555 3.15487 20.7295 3.60149C20.6035 4.04811 20.3604 4.45294 20.0254 4.77409C15.2754 9.11367 15.6879 15.8616 20.866 19.7845C21.2322 20.0719 21.5146 20.4521 21.6839 20.8856C21.8532 21.3192 21.9033 21.7902 21.8288 22.2496C21.7544 22.709 21.5582 23.1401 21.2606 23.498C20.963 23.8559 20.575 24.1275 20.1369 24.2845C18.6804 24.7604 17.1576 25.0019 15.6254 25.0001ZM15.7046 2.08346C15.1197 2.08206 14.5357 2.12629 13.9577 2.21576C11.7114 2.59567 9.64922 3.69497 8.08167 5.34819C6.51412 7.0014 5.52599 9.11907 5.26603 11.3824C5.10353 12.8408 5.25329 14.3171 5.70534 15.7131C6.1574 17.1091 6.9014 18.393 7.8879 19.4793C9.332 21.0206 11.1924 22.1097 13.2433 22.6145C15.2942 23.1193 17.4476 23.0181 19.4421 22.3231C19.528 22.2908 19.604 22.2365 19.6622 22.1655C19.7204 22.0945 19.7588 22.0093 19.7735 21.9187C19.7882 21.8281 19.7786 21.7352 19.7459 21.6494C19.7131 21.5637 19.6582 21.4881 19.5869 21.4303C13.4108 16.7658 12.9202 8.42409 18.5994 3.2543C18.6645 3.19379 18.7115 3.11631 18.7351 3.03056C18.7586 2.94481 18.7578 2.85419 18.7327 2.76888C18.711 2.67834 18.6651 2.59545 18.5997 2.52917C18.5343 2.46289 18.4521 2.41575 18.3619 2.39284C17.4918 2.18297 16.5996 2.07909 15.7046 2.08346Z" fill="#4D89EC"/>
</g>
<defs>
<clipPath id="clip0_213_358">
<rect width="25" height="25" fill="white"/>
</clipPath>
</defs>
</svg>
