
<svg width="35" height="44" viewBox="0 0 35 44" fill="none" xmlns="http://www.w3.org/2000/svg">
<path d="M35 44.0001H31.1111V34.7546C31.1096 33.3172 30.5033 31.9392 29.4254 30.9228C28.3474 29.9065 26.8858 29.3349 25.3614 29.3334H9.63861C8.11416 29.3349 6.6526 29.9065 5.57465 30.9228C4.4967 31.9392 3.89043 33.3172 3.88889 34.7546V44.0001H0V34.7546C0.00308744 32.3452 1.01957 30.0354 2.82649 28.3317C4.63341 26.6281 7.08324 25.6697 9.63861 25.6667H25.3614C27.9168 25.6697 30.3666 26.6281 32.1735 28.3317C33.9804 30.0354 34.9969 32.3452 35 34.7546V44.0001Z" fill="#3C84C0"/>
<path d="M17.4997 22C15.1922 22 12.9366 21.3549 11.018 20.1462C9.09945 18.9375 7.60411 17.2195 6.72109 15.2095C5.83806 13.1995 5.60702 10.9878 6.05718 8.85401C6.50735 6.72022 7.61849 4.76021 9.2501 3.22183C10.8817 1.68345 12.9605 0.635804 15.2236 0.211367C17.4867 -0.213071 19.8325 0.00476615 21.9643 0.83733C24.0961 1.66989 25.9182 3.07979 27.2002 4.88873C28.4821 6.69767 29.1663 8.82441 29.1663 11C29.1633 13.9165 27.9331 16.7127 25.7458 18.775C23.5586 20.8372 20.5929 21.9971 17.4997 22ZM17.4997 3.66667C15.9614 3.66667 14.4576 4.09676 13.1786 4.90256C11.8995 5.70836 10.9026 6.85367 10.3139 8.19366C9.72527 9.53365 9.57124 11.0081 9.87135 12.4307C10.1715 13.8532 10.9122 15.1599 12 16.1855C13.0877 17.211 14.4736 17.9095 15.9823 18.1924C17.4911 18.4754 19.0549 18.3302 20.4761 17.7751C21.8973 17.2201 23.112 16.2801 23.9667 15.0742C24.8213 13.8682 25.2775 12.4504 25.2775 11C25.2775 9.05508 24.458 7.18982 22.9994 5.81455C21.5408 4.43929 19.5625 3.66667 17.4997 3.66667Z" fill="#3C84C0"/>
<svg width="18" height="22" viewBox="0 0 18 22" fill="none" xmlns="http://www.w3.org/2000/svg">
<path d="M18 22H16V17.3773C15.9992 16.6586 15.6874 15.9696 15.133 15.4614C14.5787 14.9532 13.827 14.6674 13.043 14.6667H4.957C4.173 14.6674 3.42134 14.9532 2.86696 15.4614C2.31259 15.9696 2.00079 16.6586 2 17.3773V22H0V17.3773C0.00158783 16.1726 0.524351 15.0177 1.45363 14.1658C2.3829 13.314 3.64281 12.8348 4.957 12.8334H13.043C14.3572 12.8348 15.6171 13.314 16.5464 14.1658C17.4756 15.0177 17.9984 16.1726 18 17.3773V22Z" fill="#1C658C"/>
<path d="M9 11C7.81331 11 6.65328 10.6774 5.66658 10.0731C4.67989 9.46874 3.91085 8.60975 3.45673 7.60476C3.0026 6.59977 2.88378 5.4939 3.11529 4.42701C3.3468 3.36011 3.91825 2.3801 4.75736 1.61092C5.59648 0.841726 6.66557 0.317902 7.82946 0.105683C8.99335 -0.106535 10.1997 0.00238307 11.2961 0.418665C12.3925 0.834947 13.3295 1.5399 13.9888 2.44437C14.6481 3.34884 15 4.41221 15 5.5C14.9984 6.95825 14.3658 8.35635 13.2409 9.38748C12.116 10.4186 10.5908 10.9985 9 11ZM9 1.83334C8.20888 1.83334 7.43552 2.04838 6.77772 2.45128C6.11993 2.85418 5.60723 3.42683 5.30448 4.09683C5.00173 4.76683 4.92252 5.50407 5.07686 6.21533C5.2312 6.9266 5.61217 7.57993 6.17158 8.09273C6.73099 8.60552 7.44372 8.95474 8.21964 9.09622C8.99557 9.23769 9.79983 9.16508 10.5307 8.88756C11.2616 8.61004 11.8864 8.14007 12.3259 7.53709C12.7654 6.93411 13 6.2252 13 5.5C13 4.52754 12.5786 3.59491 11.8284 2.90728C11.0783 2.21964 10.0609 1.83334 9 1.83334Z" fill="#1C658C"/>
</svg>
