<svg width="35" height="44" viewBox="0 0 35 44" fill="none" xmlns="http://www.w3.org/2000/svg">
<path d="M35 44.0001H31.1111V34.7546C31.1096 33.3172 30.5033 31.9392 29.4254 30.9228C28.3474 29.9065 26.8858 29.3349 25.3614 29.3334H9.63861C8.11416 29.3349 6.6526 29.9065 5.57465 30.9228C4.4967 31.9392 3.89043 33.3172 3.88889 34.7546V44.0001H0V34.7546C0.00308744 32.3452 1.01957 30.0354 2.82649 28.3317C4.63341 26.6281 7.08324 25.6697 9.63861 25.6667H25.3614C27.9168 25.6697 30.3666 26.6281 32.1735 28.3317C33.9804 30.0354 34.9969 32.3452 35 34.7546V44.0001Z" fill="#3C84C0"/>
<path d="M17.4997 22C15.1922 22 12.9366 21.3549 11.018 20.1462C9.09945 18.9375 7.60411 17.2195 6.72109 15.2095C5.83806 13.1995 5.60702 10.9878 6.05718 8.85401C6.50735 6.72022 7.61849 4.76021 9.2501 3.22183C10.8817 1.68345 12.9605 0.635804 15.2236 0.211367C17.4867 -0.213071 19.8325 0.00476615 21.9643 0.83733C24.0961 1.66989 25.9182 3.07979 27.2002 4.88873C28.4821 6.69767 29.1663 8.82441 29.1663 11C29.1633 13.9165 27.9331 16.7127 25.7458 18.775C23.5586 20.8372 20.5929 21.9971 17.4997 22ZM17.4997 3.66667C15.9614 3.66667 14.4576 4.09676 13.1786 4.90256C11.8995 5.70836 10.9026 6.85367 10.3139 8.19366C9.72527 9.53365 9.57124 11.0081 9.87135 12.4307C10.1715 13.8532 10.9122 15.1599 12 16.1855C13.0877 17.211 14.4736 17.9095 15.9823 18.1924C17.4911 18.4754 19.0549 18.3302 20.4761 17.7751C21.8973 17.2201 23.112 16.2801 23.9667 15.0742C24.8213 13.8682 25.2775 12.4504 25.2775 11C25.2775 9.05508 24.458 7.18982 22.9994 5.81455C21.5408 4.43929 19.5625 3.66667 17.4997 3.66667Z" fill="#3C84C0"/>
</svg>
