<svg width="18" height="22" viewBox="0 0 18 22" fill="none" xmlns="http://www.w3.org/2000/svg">
<path d="M18 22H16V17.3773C15.9992 16.6586 15.6874 15.9696 15.133 15.4614C14.5787 14.9532 13.827 14.6674 13.043 14.6667H4.957C4.173 14.6674 3.42134 14.9532 2.86696 15.4614C2.31259 15.9696 2.00079 16.6586 2 17.3773V22H0V17.3773C0.00158783 16.1726 0.524351 15.0177 1.45363 14.1658C2.3829 13.314 3.64281 12.8348 4.957 12.8334H13.043C14.3572 12.8348 15.6171 13.314 16.5464 14.1658C17.4756 15.0177 17.9984 16.1726 18 17.3773V22Z" fill="#1C658C"/>
<path d="M9 11C7.81331 11 6.65328 10.6774 5.66658 10.0731C4.67989 9.46874 3.91085 8.60975 3.45673 7.60476C3.0026 6.59977 2.88378 5.4939 3.11529 4.42701C3.3468 3.36011 3.91825 2.3801 4.75736 1.61092C5.59648 0.841726 6.66557 0.317902 7.82946 0.105683C8.99335 -0.106535 10.1997 0.00238307 11.2961 0.418665C12.3925 0.834947 13.3295 1.5399 13.9888 2.44437C14.6481 3.34884 15 4.41221 15 5.5C14.9984 6.95825 14.3658 8.35635 13.2409 9.38748C12.116 10.4186 10.5908 10.9985 9 11ZM9 1.83334C8.20888 1.83334 7.43552 2.04838 6.77772 2.45128C6.11993 2.85418 5.60723 3.42683 5.30448 4.09683C5.00173 4.76683 4.92252 5.50407 5.07686 6.21533C5.2312 6.9266 5.61217 7.57993 6.17158 8.09273C6.73099 8.60552 7.44372 8.95474 8.21964 9.09622C8.99557 9.23769 9.79983 9.16508 10.5307 8.88756C11.2616 8.61004 11.8864 8.14007 12.3259 7.53709C12.7654 6.93411 13 6.2252 13 5.5C13 4.52754 12.5786 3.59491 11.8284 2.90728C11.0783 2.21964 10.0609 1.83334 9 1.83334Z" fill="#1C658C"/>
</svg>
