<svg width="30" height="30" viewBox="0 0 30 30" fill="none" xmlns="http://www.w3.org/2000/svg">
<path d="M28.8992 1.10178C28.451 0.64818 27.8934 0.317832 27.2802 0.142654C26.667 -0.0325244 26.019 -0.0466102 25.3988 0.101757L5.39612 4.31436C4.24419 4.47232 3.15924 4.94872 2.26346 5.68991C1.36768 6.4311 0.696639 7.40764 0.325918 8.50955C-0.0448041 9.61146 -0.100486 10.795 0.165143 11.9268C0.430771 13.0587 1.00716 14.0939 1.8294 14.9159L3.97718 17.0622C4.09343 17.1784 4.18562 17.3164 4.24847 17.4682C4.31132 17.6201 4.34361 17.7828 4.34348 17.9472V21.9073C4.34624 22.4641 4.47443 23.0131 4.71853 23.5136L4.70853 23.5223L4.74103 23.5548C5.10735 24.2913 5.70564 24.8869 6.44376 25.2499L6.47626 25.2824L6.48501 25.2724C6.98553 25.5165 7.53461 25.6446 8.09148 25.6474H12.052C12.3834 25.6471 12.7013 25.7784 12.9359 26.0124L15.0824 28.1587C15.6581 28.7407 16.3434 29.2031 17.0986 29.5191C17.8539 29.8351 18.6643 29.9986 19.483 30C20.1653 29.9992 20.8429 29.8877 21.4895 29.67C22.5814 29.3115 23.5515 28.655 24.2902 27.7746C25.0288 26.8942 25.5068 25.8249 25.67 24.6874L29.8894 4.64312C30.0454 4.01766 30.0362 3.36236 29.8627 2.74153C29.6891 2.12069 29.3571 1.55563 28.8992 1.10178ZM5.74742 15.2971L3.59838 13.1508C3.09796 12.6625 2.74723 12.0416 2.58736 11.361C2.42748 10.6804 2.46508 9.96824 2.69576 9.30824C2.91941 8.63112 3.33285 8.03249 3.88692 7.58352C4.44098 7.13456 5.11235 6.85416 5.82118 6.77567L25.625 2.60682L6.84131 21.391V17.9472C6.8432 17.4551 6.7475 16.9675 6.55974 16.5127C6.37197 16.0578 6.09588 15.6446 5.74742 15.2971ZM23.2135 24.2599C23.1175 24.9503 22.8309 25.6003 22.386 26.137C21.941 26.6736 21.3553 27.0756 20.6946 27.2979C20.0338 27.5201 19.3242 27.5539 18.6453 27.3952C17.9664 27.2366 17.3452 26.8919 16.8514 26.3999L14.7011 24.2499C14.354 23.9009 13.9412 23.6242 13.4865 23.4358C13.0318 23.2475 12.5442 23.1511 12.052 23.1523H8.60779L27.394 4.37436L23.2135 24.2599Z" fill="#E6B32A"/>
</svg>
