<svg width="30" height="30" viewBox="0 0 30 30" fill="none" xmlns="http://www.w3.org/2000/svg">
<mask id="path-1-inside-1_213_368" fill="white">
<path d="M0.561514 22.5C1.71064 24.2945 4.25903 24.911 6.25344 23.8771C6.2548 23.8764 6.25611 23.8757 6.25747 23.875L6.87567 23.5537C8.04264 24.4521 9.38401 25.1487 10.8322 25.6087V26.25C10.8322 28.3211 12.6982 30 15 30C17.3018 30 19.1678 28.3211 19.1678 26.25V25.6087C20.6162 25.148 21.9576 24.4505 23.1243 23.5512L23.7453 23.8737C25.7402 24.9093 28.2904 24.2937 29.4413 22.4987C30.5922 20.7038 29.908 18.4092 27.9131 17.3737L27.2963 17.0537C27.5739 15.6943 27.5739 14.3007 27.2963 12.9412L27.9131 12.6212C29.9079 11.5857 30.5922 9.29115 29.4413 7.49619C28.2904 5.70129 25.7403 5.08564 23.7453 6.12117L23.1271 6.44244C21.959 5.5452 20.6167 4.8498 19.1678 4.39125V3.75C19.1678 1.67895 17.3018 0 15 0C12.6982 0 10.8322 1.67895 10.8322 3.75V4.39125C9.38381 4.85197 8.04238 5.54947 6.87567 6.44877L6.25467 6.12504C4.25975 5.08945 1.7096 5.7051 0.558713 7.5C-0.592174 9.2949 0.0919895 11.5895 2.08691 12.625L2.70374 12.945C2.42606 14.3044 2.42606 15.698 2.70374 17.0575L2.08691 17.3775C0.0975249 18.4158 -0.584425 20.7059 0.561514 22.5ZM15 10C18.069 10 20.557 12.2386 20.557 15C20.557 17.7614 18.069 20 15 20C11.931 20 9.44301 17.7614 9.44301 15C9.44301 12.2386 11.931 10 15 10Z"/>
</mask>
<path d="M0.561514 22.5C1.71064 24.2945 4.25903 24.911 6.25344 23.8771C6.2548 23.8764 6.25611 23.8757 6.25747 23.875L6.87567 23.5537C8.04264 24.4521 9.38401 25.1487 10.8322 25.6087V26.25C10.8322 28.3211 12.6982 30 15 30C17.3018 30 19.1678 28.3211 19.1678 26.25V25.6087C20.6162 25.148 21.9576 24.4505 23.1243 23.5512L23.7453 23.8737C25.7402 24.9093 28.2904 24.2937 29.4413 22.4987C30.5922 20.7038 29.908 18.4092 27.9131 17.3737L27.2963 17.0537C27.5739 15.6943 27.5739 14.3007 27.2963 12.9412L27.9131 12.6212C29.9079 11.5857 30.5922 9.29115 29.4413 7.49619C28.2904 5.70129 25.7403 5.08564 23.7453 6.12117L23.1271 6.44244C21.959 5.5452 20.6167 4.8498 19.1678 4.39125V3.75C19.1678 1.67895 17.3018 0 15 0C12.6982 0 10.8322 1.67895 10.8322 3.75V4.39125C9.38381 4.85197 8.04238 5.54947 6.87567 6.44877L6.25467 6.12504C4.25975 5.08945 1.7096 5.7051 0.558713 7.5C-0.592174 9.2949 0.0919895 11.5895 2.08691 12.625L2.70374 12.945C2.42606 14.3044 2.42606 15.698 2.70374 17.0575L2.08691 17.3775C0.0975249 18.4158 -0.584425 20.7059 0.561514 22.5ZM15 10C18.069 10 20.557 12.2386 20.557 15C20.557 17.7614 18.069 20 15 20C11.931 20 9.44301 17.7614 9.44301 15C9.44301 12.2386 11.931 10 15 10Z" fill="#EEEEEE"/>
<path d="M0.561514 22.5L0.140131 22.7691L0.140448 22.7696L0.561514 22.5ZM6.25344 23.8771L6.02481 23.4324L6.02331 23.4332L6.25344 23.8771ZM6.25747 23.875L6.4861 24.3196L6.48804 24.3186L6.25747 23.875ZM6.87567 23.5537L7.18067 23.1575L6.92802 22.963L6.6451 23.11L6.87567 23.5537ZM10.8322 25.6087H11.3322V25.2429L10.9836 25.1321L10.8322 25.6087ZM19.1678 25.6087L19.0162 25.1323L18.6678 25.2431V25.6087H19.1678ZM23.1243 23.5512L23.3548 23.1075L23.0717 22.9605L22.8191 23.1552L23.1243 23.5512ZM23.7453 23.8737L23.5149 24.3175L23.515 24.3175L23.7453 23.8737ZM29.4413 22.4987L29.0204 22.2288L29.0204 22.2288L29.4413 22.4987ZM27.9131 17.3737L28.1434 16.9299L28.1433 16.9299L27.9131 17.3737ZM27.2963 17.0537L26.8064 16.9536L26.7308 17.3236L27.066 17.4975L27.2963 17.0537ZM27.2963 12.9412L27.066 12.4974L26.7308 12.6713L26.8064 13.0413L27.2963 12.9412ZM27.9131 12.6212L28.1433 13.065L28.1434 13.065L27.9131 12.6212ZM29.4413 7.49619L29.8622 7.22631L29.8622 7.22631L29.4413 7.49619ZM23.7453 6.12117L23.515 5.6774L23.5148 5.67751L23.7453 6.12117ZM23.1271 6.44244L22.8226 6.83897L23.0751 7.03296L23.3577 6.88611L23.1271 6.44244ZM19.1678 4.39125H18.6678V4.75745L19.0169 4.86795L19.1678 4.39125ZM10.8322 4.39125L10.9838 4.86773L11.3322 4.75689V4.39125H10.8322ZM6.87567 6.44877L6.64454 6.89214L6.92786 7.03984L7.18091 6.84478L6.87567 6.44877ZM6.25467 6.12504L6.48581 5.68167L6.48504 5.68127L6.25467 6.12504ZM2.08691 12.625L1.85656 13.0688L1.85667 13.0689L2.08691 12.625ZM2.70374 12.945L3.19363 13.0451L3.2692 12.6751L2.93398 12.5012L2.70374 12.945ZM2.70374 17.0575L2.93398 17.5014L3.2692 17.3275L3.19363 16.9575L2.70374 17.0575ZM2.08691 17.3775L1.85667 16.9337L1.85557 16.9342L2.08691 17.3775ZM0.140448 22.7696C1.44054 24.7999 4.27925 25.4637 6.48356 24.321L6.02331 23.4332C4.23882 24.3583 1.98074 23.7891 0.98258 22.2304L0.140448 22.7696ZM6.48206 24.3217C6.48535 24.32 6.48823 24.3185 6.48855 24.3184C6.48956 24.3178 6.48802 24.3186 6.4861 24.3196L6.02885 23.4303C6.02556 23.432 6.02268 23.4335 6.02235 23.4337C6.02135 23.4342 6.02289 23.4334 6.02481 23.4324L6.48206 24.3217ZM6.48804 24.3186L7.10624 23.9974L6.6451 23.11L6.02691 23.4313L6.48804 24.3186ZM6.57067 23.9499C7.78525 24.8849 9.17895 25.6082 10.6809 26.0852L10.9836 25.1321C9.58907 24.6892 8.30003 24.0192 7.18067 23.1575L6.57067 23.9499ZM10.3322 25.6087V26.25H11.3322V25.6087H10.3322ZM10.3322 26.25C10.3322 28.6456 12.4731 30.5 15 30.5V29.5C12.9234 29.5 11.3322 27.9965 11.3322 26.25H10.3322ZM15 30.5C17.5269 30.5 19.6678 28.6456 19.6678 26.25H18.6678C18.6678 27.9965 17.0766 29.5 15 29.5V30.5ZM19.6678 26.25V25.6087H18.6678V26.25H19.6678ZM19.3193 26.0852C20.8215 25.6074 22.2152 24.8833 23.4296 23.9472L22.8191 23.1552C21.7 24.0178 20.4109 24.6886 19.0162 25.1323L19.3193 26.0852ZM22.8939 23.995L23.5149 24.3175L23.9758 23.43L23.3548 23.1075L22.8939 23.995ZM23.515 24.3175C25.7197 25.462 28.5602 24.7992 29.8622 22.7686L29.0204 22.2288C28.0206 23.7882 25.7607 24.3565 23.9757 23.43L23.515 24.3175ZM29.8622 22.7686C31.1871 20.7024 30.3738 18.0876 28.1434 16.9299L27.6827 17.8175C29.4422 18.7308 29.9973 20.7053 29.0204 22.2288L29.8622 22.7686ZM28.1433 16.9299L27.5265 16.6099L27.066 17.4975L27.6828 17.8175L28.1433 16.9299ZM27.7861 17.1538C28.0773 15.7283 28.0773 14.2666 27.7861 12.8411L26.8064 13.0413C27.0706 14.3347 27.0706 15.6602 26.8064 16.9536L27.7861 17.1538ZM27.5265 13.385L28.1433 13.065L27.6828 12.1774L27.066 12.4974L27.5265 13.385ZM28.1434 13.065C30.3737 11.9073 31.1871 9.29262 29.8622 7.22631L29.0204 7.76607C29.9973 9.28969 29.4422 11.2641 27.6827 12.1774L28.1434 13.065ZM29.8622 7.22631C28.5602 5.1958 25.7198 4.53292 23.515 5.6774L23.9757 6.56495C25.7607 5.63837 28.0206 6.20678 29.0204 7.76608L29.8622 7.22631ZM23.5148 5.67751L22.8966 5.99878L23.3577 6.88611L23.9759 6.56484L23.5148 5.67751ZM23.4317 6.04591C22.2159 5.11207 20.8213 4.39011 19.3186 3.91455L19.0169 4.86795C20.4121 5.3095 21.7021 5.97832 22.8226 6.83897L23.4317 6.04591ZM19.6678 4.39125V3.75H18.6678V4.39125H19.6678ZM19.6678 3.75C19.6678 1.35444 17.5269 -0.5 15 -0.5V0.5C17.0766 0.5 18.6678 2.00345 18.6678 3.75H19.6678ZM15 -0.5C12.4731 -0.5 10.3322 1.35444 10.3322 3.75H11.3322C11.3322 2.00345 12.9234 0.5 15 0.5V-0.5ZM10.3322 3.75V4.39125H11.3322V3.75H10.3322ZM10.6807 3.91477C9.17854 4.39258 7.78477 5.11674 6.57042 6.05276L7.18091 6.84478C8.29999 5.9822 9.58908 5.31137 10.9838 4.86773L10.6807 3.91477ZM7.1068 6.0054L6.48581 5.68167L6.02354 6.56841L6.64454 6.89214L7.1068 6.0054ZM6.48504 5.68127C4.28022 4.53672 1.43976 5.19961 0.137807 7.23012L0.97962 7.76988C1.97944 6.21059 4.23928 5.64218 6.02431 6.56881L6.48504 5.68127ZM0.137807 7.23012C-1.18706 9.29636 -0.373777 11.9111 1.85656 13.0688L2.31727 12.1812C0.557755 11.2679 0.00271313 9.29345 0.97962 7.76988L0.137807 7.23012ZM1.85667 13.0689L2.4735 13.3888L2.93398 12.5012L2.31715 12.1812L1.85667 13.0689ZM2.21386 12.8449C1.92269 14.2704 1.92269 15.7321 2.21386 17.1576L3.19363 16.9575C2.92944 15.664 2.92944 14.3385 3.19363 13.0451L2.21386 12.8449ZM2.4735 16.6137L1.85667 16.9337L2.31715 17.8213L2.93398 17.5014L2.4735 16.6137ZM1.85557 16.9342C-0.368424 18.095 -1.17878 20.7042 0.140132 22.7691L0.982896 22.2309C0.00993019 20.7075 0.563473 18.7366 2.31826 17.8208L1.85557 16.9342ZM15 10.5C17.8439 10.5 20.057 12.5631 20.057 15H21.057C21.057 11.9141 18.2942 9.50002 15 9.50002V10.5ZM20.057 15C20.057 17.4369 17.8439 19.5 15 19.5V20.5C18.2942 20.5 21.057 18.0859 21.057 15H20.057ZM15 19.5C12.1561 19.5 9.94301 17.4369 9.94301 15H8.94301C8.94301 18.0859 11.7058 20.5 15 20.5V19.5ZM9.94301 15C9.94301 12.5631 12.1561 10.5 15 10.5V9.50002C11.7058 9.50002 8.94301 11.9141 8.94301 15H9.94301Z" fill="black" fill-opacity="0.3" mask="url(#path-1-inside-1_213_368)"/>
</svg>
