<svg width="40" height="40" viewBox="0 0 40 40" fill="none" xmlns="http://www.w3.org/2000/svg">
<g clip-path="url(#clip0_201_50)">
<path d="M38.3332 31.6667H34.9998V28.3334C34.9998 27.8914 34.8243 27.4675 34.5117 27.1549C34.1991 26.8423 33.7752 26.6667 33.3332 26.6667C32.8911 26.6667 32.4672 26.8423 32.1547 27.1549C31.8421 27.4675 31.6665 27.8914 31.6665 28.3334V31.6667H28.3332C27.8911 31.6667 27.4672 31.8423 27.1547 32.1549C26.8421 32.4675 26.6665 32.8914 26.6665 33.3334C26.6665 33.7754 26.8421 34.1994 27.1547 34.5119C27.4672 34.8245 27.8911 35.0001 28.3332 35.0001H31.6665V38.3334C31.6665 38.7754 31.8421 39.1994 32.1547 39.5119C32.4672 39.8245 32.8911 40.0001 33.3332 40.0001C33.7752 40.0001 34.1991 39.8245 34.5117 39.5119C34.8243 39.1994 34.9998 38.7754 34.9998 38.3334V35.0001H38.3332C38.7752 35.0001 39.1991 34.8245 39.5117 34.5119C39.8243 34.1994 39.9999 33.7754 39.9999 33.3334C39.9999 32.8914 39.8243 32.4675 39.5117 32.1549C39.1991 31.8423 38.7752 31.6667 38.3332 31.6667Z" fill="#4D89EC"/>
<path d="M35 10H30C30 7.34783 28.9464 4.8043 27.0711 2.92893C25.1957 1.05357 22.6522 0 20 0C17.3478 0 14.8043 1.05357 12.9289 2.92893C11.0536 4.8043 10 7.34783 10 10H5C3.67392 10 2.40215 10.5268 1.46447 11.4645C0.526784 12.4021 0 13.6739 0 15L0 31.6667C0.00264643 33.876 0.88147 35.9941 2.4437 37.5563C4.00593 39.1185 6.12401 39.9974 8.33333 40H23.3333C23.7754 40 24.1993 39.8244 24.5118 39.5118C24.8244 39.1993 25 38.7754 25 38.3333C25 37.8913 24.8244 37.4674 24.5118 37.1548C24.1993 36.8423 23.7754 36.6667 23.3333 36.6667H8.33333C7.00725 36.6667 5.73548 36.1399 4.7978 35.2022C3.86012 34.2645 3.33333 32.9927 3.33333 31.6667V15C3.33333 14.558 3.50893 14.134 3.82149 13.8215C4.13405 13.5089 4.55797 13.3333 5 13.3333H10V16.6667C10 17.1087 10.1756 17.5326 10.4882 17.8452C10.8007 18.1577 11.2246 18.3333 11.6667 18.3333C12.1087 18.3333 12.5326 18.1577 12.8452 17.8452C13.1577 17.5326 13.3333 17.1087 13.3333 16.6667V13.3333H26.6667V16.6667C26.6667 17.1087 26.8423 17.5326 27.1548 17.8452C27.4674 18.1577 27.8913 18.3333 28.3333 18.3333C28.7754 18.3333 29.1993 18.1577 29.5118 17.8452C29.8244 17.5326 30 17.1087 30 16.6667V13.3333H35C35.442 13.3333 35.866 13.5089 36.1785 13.8215C36.4911 14.134 36.6667 14.558 36.6667 15V23.3333C36.6667 23.7754 36.8423 24.1993 37.1548 24.5118C37.4674 24.8244 37.8913 25 38.3333 25C38.7754 25 39.1993 24.8244 39.5118 24.5118C39.8244 24.1993 40 23.7754 40 23.3333V15C40 13.6739 39.4732 12.4021 38.5355 11.4645C37.5979 10.5268 36.3261 10 35 10ZM13.3333 10C13.3333 8.23189 14.0357 6.5362 15.286 5.28595C16.5362 4.03571 18.2319 3.33333 20 3.33333C21.7681 3.33333 23.4638 4.03571 24.714 5.28595C25.9643 6.5362 26.6667 8.23189 26.6667 10H13.3333Z" fill="#4D89EC"/>
</g>
<defs>
<clipPath id="clip0_201_50">
<rect width="40" height="40" fill="white"/>
</clipPath>
</defs>
</svg>
