<svg width="32" height="29" viewBox="0 0 32 29" fill="none" xmlns="http://www.w3.org/2000/svg">
<path d="M15.3333 19.3333C14.8029 19.3333 14.2942 19.5243 13.9191 19.8642C13.544 20.2041 13.3333 20.6651 13.3333 21.1458V22.1125C13.3333 22.9778 12.954 23.8076 12.2789 24.4194C11.6038 25.0313 10.6881 25.375 9.73333 25.375H7.6C6.64522 25.375 5.72955 25.0313 5.05442 24.4194C4.37928 23.8076 4 22.9778 4 22.1125V6.8875C4 6.02223 4.37928 5.1924 5.05442 4.58056C5.72955 3.96873 6.64522 3.625 7.6 3.625H9.73333C10.6881 3.625 11.6038 3.96873 12.2789 4.58056C12.954 5.1924 13.3333 6.02223 13.3333 6.8875V7.85417C13.3333 8.33487 13.544 8.79589 13.9191 9.1358C14.2942 9.47571 14.8029 9.66667 15.3333 9.66667C15.8638 9.66667 16.3725 9.47571 16.7475 9.1358C17.1226 8.79589 17.3333 8.33487 17.3333 7.85417V6.8875C17.3312 5.06141 16.5298 3.31066 15.105 2.01942C13.6802 0.728181 11.7483 0.00191917 9.73333 0L7.6 0C5.585 0.00191917 3.65315 0.728181 2.22833 2.01942C0.80351 3.31066 0.00211771 5.06141 0 6.8875L0 22.1125C0.00211771 23.9386 0.80351 25.6893 2.22833 26.9806C3.65315 28.2718 5.585 28.9981 7.6 29H9.73333C11.7483 28.9981 13.6802 28.2718 15.105 26.9806C16.5298 25.6893 17.3312 23.9386 17.3333 22.1125V21.1458C17.3333 20.6651 17.1226 20.2041 16.7475 19.8642C16.3725 19.5243 15.8638 19.3333 15.3333 19.3333Z" fill="#E6B32A"/>
<path d="M30.081 11.5093L23.9663 5.96787C23.7806 5.79959 23.56 5.66611 23.3173 5.57507C23.0746 5.48403 22.8145 5.4372 22.5519 5.43726C22.2892 5.43731 22.0291 5.48425 21.7865 5.5754C21.5438 5.66655 21.3234 5.80011 21.1377 5.96847C20.7627 6.30849 20.5521 6.76959 20.5522 7.25034C20.5522 7.48838 20.604 7.72408 20.7046 7.94398C20.8052 8.16388 20.9526 8.36367 21.1383 8.53195L25.6863 12.6536L9.33301 12.6874C8.80258 12.6874 8.29387 12.8784 7.91879 13.2183C7.54372 13.5582 7.33301 14.0192 7.33301 14.4999C7.33301 14.9806 7.54372 15.4416 7.91879 15.7815C8.29387 16.1215 8.80258 16.3124 9.33301 16.3124L25.757 16.2786L21.1343 20.4679C20.7592 20.8077 20.5483 21.2687 20.5482 21.7495C20.5481 22.2302 20.7587 22.6913 21.1337 23.0314C21.5087 23.3714 22.0174 23.5625 22.5479 23.5626C23.0784 23.5627 23.5872 23.3718 23.9623 23.032L30.077 17.4905C30.9512 16.6971 31.4425 15.6219 31.4433 14.5007C31.444 13.3794 30.9541 12.3037 30.081 11.5093Z" fill="#E6B32A"/>
</svg>
