<svg width="25" height="25" viewBox="0 0 25 25" fill="none" xmlns="http://www.w3.org/2000/svg">
<path d="M23.8718 1.1274C21.1857 -1.55874 14.7694 1.08576 12.3155 3.53868C11.2359 4.62331 10.5767 6.05626 10.4556 7.58185C10.3346 9.10744 10.7594 10.6264 11.6544 11.8678L0.317837 23.21C0.218401 23.306 0.139087 23.4209 0.0845239 23.5479C0.0299607 23.675 0.00124055 23.8116 3.93087e-05 23.9498C-0.00116193 24.0881 0.0251798 24.2252 0.0775274 24.3531C0.129875 24.4811 0.20718 24.5973 0.304932 24.6951C0.402684 24.7928 0.518926 24.8701 0.646874 24.9225C0.774821 24.9748 0.911914 25.0012 1.05015 25C1.18839 24.9988 1.325 24.97 1.45202 24.9155C1.57904 24.8609 1.69392 24.7816 1.78996 24.6822L13.1297 13.3441C14.3694 14.2435 15.8893 14.671 17.416 14.5498C18.9428 14.4286 20.3762 13.7667 21.4585 12.683C23.9134 10.229 26.5599 3.81354 23.8718 1.1274Z" fill="#3C84C0"/>
</svg>
