<svg width="40" height="40" viewBox="0 0 40 40" fill="none" xmlns="http://www.w3.org/2000/svg">
<g clip-path="url(#clip0_201_57)">
<path d="M26.6667 0H13.3333C11.124 0.00264643 9.00593 0.88147 7.4437 2.4437C5.88147 4.00593 5.00265 6.12401 5 8.33333V38.3333C5.00023 38.6365 5.08314 38.9338 5.2398 39.1933C5.39646 39.4529 5.62094 39.6647 5.88906 39.8062C6.15719 39.9476 6.45881 40.0132 6.76147 39.996C7.06412 39.9788 7.35634 39.8793 7.60667 39.7083L11.1167 37.31L14.6267 39.7083C14.904 39.8982 15.2322 39.9998 15.5683 39.9998C15.9044 39.9998 16.2327 39.8982 16.51 39.7083L20.01 37.31L23.51 39.7083C23.7875 39.8986 24.116 40.0004 24.4525 40.0004C24.7889 40.0004 25.1175 39.8986 25.395 39.7083L28.895 37.3117L32.395 39.7067C32.6452 39.8771 32.9371 39.9762 33.2393 39.9933C33.5416 40.0103 33.8428 39.9447 34.1106 39.8036C34.3784 39.6624 34.6027 39.4509 34.7594 39.1919C34.9161 38.9329 34.9992 38.6361 35 38.3333V8.33333C34.9973 6.12401 34.1185 4.00593 32.5563 2.4437C30.9941 0.88147 28.876 0.00264643 26.6667 0V0ZM31.6667 35.1667L29.8333 33.9133C29.5557 33.7227 29.2268 33.6207 28.89 33.6207C28.5532 33.6207 28.2243 33.7227 27.9467 33.9133L24.4467 36.3117L20.9467 33.9133C20.6692 33.7231 20.3406 33.6212 20.0042 33.6212C19.6677 33.6212 19.3391 33.7231 19.0617 33.9133L15.5617 36.3117L12.0617 33.9133C11.7845 33.7238 11.4566 33.6224 11.1208 33.6224C10.7851 33.6224 10.4571 33.7238 10.18 33.9133L8.33333 35.1667V8.33333C8.33333 7.00725 8.86012 5.73548 9.7978 4.7978C10.7355 3.86012 12.0072 3.33333 13.3333 3.33333H26.6667C27.9927 3.33333 29.2645 3.86012 30.2022 4.7978C31.1399 5.73548 31.6667 7.00725 31.6667 8.33333V35.1667Z" fill="#F4F4FB"/>
<path d="M26.6665 13.3334H13.3332C12.4127 13.3334 11.6665 14.0796 11.6665 15C11.6665 15.9205 12.4127 16.6667 13.3332 16.6667H26.6665C27.587 16.6667 28.3332 15.9205 28.3332 15C28.3332 14.0796 27.587 13.3334 26.6665 13.3334Z" fill="#F4F4FB"/>
<path d="M23.3332 20H13.3332C12.4127 20 11.6665 20.7462 11.6665 21.6667C11.6665 22.5871 12.4127 23.3333 13.3332 23.3333H23.3332C24.2536 23.3333 24.9998 22.5871 24.9998 21.6667C24.9998 20.7462 24.2536 20 23.3332 20Z" fill="#F4F4FB"/>
</g>
<defs>
<clipPath id="clip0_201_57">
<rect width="40" height="40" fill=""/>
</clipPath>
</defs>
</svg>
