<svg width="25" height="25" viewBox="0 0 25 25" fill="none" xmlns="http://www.w3.org/2000/svg">
<g clip-path="url(#clip0_213_351)">
<path d="M12.5002 0C9.44263 0.00898864 6.49375 1.1352 4.20856 3.16667L2.82002 1.77812C2.67434 1.63249 2.48875 1.53332 2.28672 1.49314C2.08468 1.45297 1.87527 1.4736 1.68496 1.55242C1.49465 1.63124 1.33198 1.76472 1.21752 1.93598C1.10305 2.10724 1.04194 2.30859 1.04189 2.51458V7.29167C1.04189 7.56793 1.15164 7.83288 1.34699 8.02823C1.54234 8.22359 1.80729 8.33333 2.08356 8.33333H6.86064C7.06663 8.33329 7.26798 8.27217 7.43924 8.15771C7.6105 8.04325 7.74398 7.88058 7.82281 7.69026C7.90163 7.49995 7.92226 7.29054 7.88208 7.08851C7.84191 6.88647 7.74274 6.70089 7.5971 6.55521L6.41481 5.37292C7.79449 4.19431 9.48657 3.44143 11.2857 3.20561C13.0849 2.96979 14.9139 3.26118 16.5507 4.04441C18.1875 4.82764 19.5619 6.06906 20.507 7.61804C21.4521 9.16703 21.9274 10.957 21.8752 12.7708C21.8082 15.1144 20.8655 17.3479 19.233 19.0307C17.6005 20.7135 15.3967 21.7235 13.0562 21.8616C10.7157 21.9997 8.40839 21.2558 6.58934 19.7766C4.77028 18.2974 3.57149 16.1903 3.22939 13.8708C3.18054 13.4937 2.99671 13.147 2.71194 12.895C2.42716 12.643 2.06071 12.5026 1.68043 12.5C1.45977 12.4972 1.24104 12.5414 1.03886 12.6299C0.83667 12.7183 0.655683 12.8489 0.507985 13.0128C0.360286 13.1768 0.249278 13.3704 0.182373 13.5807C0.115469 13.791 0.0942105 14.0131 0.120017 14.2323C0.55357 17.301 2.11 20.0998 4.48814 22.0872C6.86628 24.0745 9.89704 25.109 12.994 24.9906C16.127 24.8397 19.0916 23.5273 21.3095 21.3093C23.5275 19.0913 24.8399 16.1268 24.9908 12.9937C25.0554 11.3124 24.7803 9.63532 24.1818 8.06277C23.5834 6.49022 22.6739 5.05451 21.5079 3.8415C20.3418 2.62849 18.9431 1.66309 17.3954 1.00304C15.8477 0.342989 14.1828 0.00184197 12.5002 0V0Z" fill="#4D89EC"/>
<path d="M11.9795 7.2915C11.5651 7.2915 11.1677 7.45612 10.8746 7.74915C10.5816 8.04217 10.417 8.4396 10.417 8.854V13.3259C10.4171 13.8784 10.6367 14.4082 11.0274 14.7988L12.8951 16.6665C13.1898 16.9511 13.5845 17.1086 13.9942 17.1051C14.4039 17.1015 14.7958 16.9372 15.0855 16.6475C15.3752 16.3578 15.5395 15.9659 15.5431 15.5562C15.5466 15.1465 15.3891 14.7518 15.1045 14.4571L13.542 12.8946V8.854C13.542 8.4396 13.3774 8.04217 13.0843 7.74915C12.7913 7.45612 12.3939 7.2915 11.9795 7.2915Z" fill="#4D89EC"/>
</g>
<defs>
<clipPath id="clip0_213_351">
<rect width="25" height="25" fill="white"/>
</clipPath>
</defs>
</svg>
