<svg width="20" height="20" viewBox="0 0 20 20" fill="none" xmlns="http://www.w3.org/2000/svg">
<path d="M18.5745 0.358795L7.05963 17.2056C6.98221 17.3193 6.89021 17.4095 6.7889 17.4711C6.68759 17.5327 6.57897 17.5644 6.46926 17.5644C6.35956 17.5644 6.25094 17.5327 6.14963 17.4711C6.04832 17.4095 5.95632 17.3193 5.8789 17.2056L1.42595 10.6841C1.34853 10.5704 1.25653 10.4802 1.15522 10.4186C1.05391 10.357 0.945287 10.3253 0.835585 10.3253C0.725883 10.3253 0.617261 10.357 0.515951 10.4186C0.414641 10.4802 0.322638 10.5704 0.24522 10.6841C0.167496 10.7974 0.105824 10.932 0.0637431 11.0802C0.021662 11.2285 0 11.3874 0 11.5479C0 11.7084 0.021662 11.8673 0.0637431 12.0156C0.105824 12.1638 0.167496 12.2984 0.24522 12.4117L4.69983 18.9283C5.16975 19.6146 5.80657 20 6.47051 20C7.13446 20 7.77128 19.6146 8.24119 18.9283L19.7552 2.08517C19.8328 1.97192 19.8944 1.83738 19.9364 1.68926C19.9784 1.54114 20 1.38235 20 1.22198C20 1.06162 19.9784 0.902825 19.9364 0.754705C19.8944 0.606585 19.8328 0.472047 19.7552 0.358795C19.6778 0.245073 19.5858 0.154837 19.4845 0.0932662C19.3832 0.0316951 19.2745 0 19.1648 0C19.0551 0 18.9465 0.0316951 18.8452 0.0932662C18.7439 0.154837 18.6519 0.245073 18.5745 0.358795Z" fill="white"/>
</svg>
